<?xml version="1.0" encoding="UTF-8" standalone="no"?>
<!DOCTYPE svg PUBLIC "-//W3C//DTD SVG 1.1//EN"
 "http://www.w3.org/Graphics/SVG/1.1/DTD/svg11.dtd">
<!-- Generated by graphviz version 2.40.1 (20161225.0304)
 -->
<!-- Title: %3 Pages: 1 -->
<svg width="1470pt" height="620pt"
 viewBox="0.00 0.00 1469.91 620.00" xmlns="http://www.w3.org/2000/svg" xmlns:xlink="http://www.w3.org/1999/xlink">
<g id="graph0" class="graph" transform="scale(1 1) rotate(0) translate(4 616)">
<title>%3</title>
<polygon fill="#ffffff" stroke="transparent" points="-4,4 -4,-616 1465.9127,-616 1465.9127,4 -4,4"/>
<!-- [root] aws_alb.main -->
<g id="node1" class="node">
<title>[root] aws_alb.main</title>
<polygon fill="none" stroke="#000000" points="764.4127,-252 672.4127,-252 672.4127,-216 764.4127,-216 764.4127,-252"/>
<text text-anchor="middle" x="718.4127" y="-230.3" font-family="Times,serif" font-size="14.00" fill="#000000">aws_alb.main</text>
</g>
<!-- [root] aws_security_group.lb -->
<g id="node14" class="node">
<title>[root] aws_security_group.lb</title>
<polygon fill="none" stroke="#000000" points="474.4127,-180 334.4127,-180 334.4127,-144 474.4127,-144 474.4127,-180"/>
<text text-anchor="middle" x="404.4127" y="-158.3" font-family="Times,serif" font-size="14.00" fill="#000000">aws_security_group.lb</text>
</g>
<!-- [root] aws_alb.main&#45;&gt;[root] aws_security_group.lb -->
<g id="edge1" class="edge">
<title>[root] aws_alb.main&#45;&gt;[root] aws_security_group.lb</title>
<path fill="none" stroke="#000000" d="M672.0809,-223.3762C622.8144,-212.0794 543.9664,-193.9996 484.5819,-180.3828"/>
<polygon fill="#000000" stroke="#000000" points="485.0098,-176.8901 474.4804,-178.0665 483.4452,-183.713 485.0098,-176.8901"/>
</g>
<!-- [root] aws_subnet.public -->
<g id="node16" class="node">
<title>[root] aws_subnet.public</title>
<polygon fill="none" stroke="#000000" points="787.9127,-180 670.9127,-180 670.9127,-144 787.9127,-144 787.9127,-180"/>
<text text-anchor="middle" x="729.4127" y="-158.3" font-family="Times,serif" font-size="14.00" fill="#000000">aws_subnet.public</text>
</g>
<!-- [root] aws_alb.main&#45;&gt;[root] aws_subnet.public -->
<g id="edge2" class="edge">
<title>[root] aws_alb.main&#45;&gt;[root] aws_subnet.public</title>
<path fill="none" stroke="#000000" d="M721.1885,-215.8314C722.3649,-208.131 723.7638,-198.9743 725.0713,-190.4166"/>
<polygon fill="#000000" stroke="#000000" points="728.5491,-190.8272 726.5996,-180.4133 721.6294,-189.7699 728.5491,-190.8272"/>
</g>
<!-- [root] aws_alb_listener.front_end -->
<g id="node2" class="node">
<title>[root] aws_alb_listener.front_end</title>
<polygon fill="none" stroke="#000000" points="715.4127,-324 551.4127,-324 551.4127,-288 715.4127,-288 715.4127,-324"/>
<text text-anchor="middle" x="633.4127" y="-302.3" font-family="Times,serif" font-size="14.00" fill="#000000">aws_alb_listener.front_end</text>
</g>
<!-- [root] aws_alb_listener.front_end&#45;&gt;[root] aws_alb.main -->
<g id="edge3" class="edge">
<title>[root] aws_alb_listener.front_end&#45;&gt;[root] aws_alb.main</title>
<path fill="none" stroke="#000000" d="M654.8618,-287.8314C665.2305,-279.0485 677.8356,-268.3712 689.0772,-258.8489"/>
<polygon fill="#000000" stroke="#000000" points="691.6022,-261.297 696.9705,-252.1628 687.0778,-255.9556 691.6022,-261.297"/>
</g>
<!-- [root] aws_alb_target_group.app -->
<g id="node3" class="node">
<title>[root] aws_alb_target_group.app</title>
<polygon fill="none" stroke="#000000" points="652.4127,-180 492.4127,-180 492.4127,-144 652.4127,-144 652.4127,-180"/>
<text text-anchor="middle" x="572.4127" y="-158.3" font-family="Times,serif" font-size="14.00" fill="#000000">aws_alb_target_group.app</text>
</g>
<!-- [root] aws_alb_listener.front_end&#45;&gt;[root] aws_alb_target_group.app -->
<g id="edge4" class="edge">
<title>[root] aws_alb_listener.front_end&#45;&gt;[root] aws_alb_target_group.app</title>
<path fill="none" stroke="#000000" d="M625.687,-287.7623C615.1909,-262.9846 596.3346,-218.4714 584.1018,-189.5939"/>
<polygon fill="#000000" stroke="#000000" points="587.1991,-187.9323 580.0757,-180.0896 580.7535,-190.6628 587.1991,-187.9323"/>
</g>
<!-- [root] aws_vpc.main -->
<g id="node17" class="node">
<title>[root] aws_vpc.main</title>
<polygon fill="none" stroke="#000000" points="649.9127,-108 554.9127,-108 554.9127,-72 649.9127,-72 649.9127,-108"/>
<text text-anchor="middle" x="602.4127" y="-86.3" font-family="Times,serif" font-size="14.00" fill="#000000">aws_vpc.main</text>
</g>
<!-- [root] aws_alb_target_group.app&#45;&gt;[root] aws_vpc.main -->
<g id="edge5" class="edge">
<title>[root] aws_alb_target_group.app&#45;&gt;[root] aws_vpc.main</title>
<path fill="none" stroke="#000000" d="M579.983,-143.8314C583.262,-135.9617 587.1747,-126.5712 590.8072,-117.8533"/>
<polygon fill="#000000" stroke="#000000" points="594.1251,-118.9902 594.7405,-108.4133 587.6635,-116.2979 594.1251,-118.9902"/>
</g>
<!-- [root] aws_ecs_cluster.main -->
<g id="node4" class="node">
<title>[root] aws_ecs_cluster.main</title>
<polygon fill="none" stroke="#000000" points="1207.4127,-108 1071.4127,-108 1071.4127,-72 1207.4127,-72 1207.4127,-108"/>
<text text-anchor="middle" x="1139.4127" y="-86.3" font-family="Times,serif" font-size="14.00" fill="#000000">aws_ecs_cluster.main</text>
</g>
<!-- [root] provider.aws -->
<g id="node20" class="node">
<title>[root] provider.aws</title>
<polygon fill="none" stroke="#000000" points="690.4127,-36 610.4793,-18 690.4127,0 770.3461,-18 690.4127,-36"/>
<text text-anchor="middle" x="690.4127" y="-14.3" font-family="Times,serif" font-size="14.00" fill="#000000">provider.aws</text>
</g>
<!-- [root] aws_ecs_cluster.main&#45;&gt;[root] provider.aws -->
<g id="edge6" class="edge">
<title>[root] aws_ecs_cluster.main&#45;&gt;[root] provider.aws</title>
<path fill="none" stroke="#000000" d="M1071.2193,-79.0647C982.6704,-64.8654 829.7154,-40.3381 747.1706,-27.1015"/>
<polygon fill="#000000" stroke="#000000" points="747.6473,-23.6333 737.2192,-25.5057 746.5389,-30.545 747.6473,-23.6333"/>
</g>
<!-- [root] aws_ecs_service.main -->
<g id="node5" class="node">
<title>[root] aws_ecs_service.main</title>
<polygon fill="none" stroke="#000000" points="776.4127,-396 638.4127,-396 638.4127,-360 776.4127,-360 776.4127,-396"/>
<text text-anchor="middle" x="707.4127" y="-374.3" font-family="Times,serif" font-size="14.00" fill="#000000">aws_ecs_service.main</text>
</g>
<!-- [root] aws_ecs_service.main&#45;&gt;[root] aws_alb_listener.front_end -->
<g id="edge7" class="edge">
<title>[root] aws_ecs_service.main&#45;&gt;[root] aws_alb_listener.front_end</title>
<path fill="none" stroke="#000000" d="M688.7394,-359.8314C679.8878,-351.219 669.1641,-340.7851 659.5232,-331.4048"/>
<polygon fill="#000000" stroke="#000000" points="661.6881,-328.6279 652.08,-324.1628 656.8066,-333.645 661.6881,-328.6279"/>
</g>
<!-- [root] aws_ecs_service.main&#45;&gt;[root] aws_ecs_cluster.main -->
<g id="edge8" class="edge">
<title>[root] aws_ecs_service.main&#45;&gt;[root] aws_ecs_cluster.main</title>
<path fill="none" stroke="#000000" d="M776.6784,-361.7022C779.9622,-361.0919 783.2194,-360.52 786.4127,-360 866.4211,-346.9703 1094.9948,-384.0817 1149.4127,-324 1201.1455,-266.8829 1170.801,-166.0886 1151.5519,-117.5901"/>
<polygon fill="#000000" stroke="#000000" points="1154.6798,-115.9928 1147.6463,-108.0693 1148.2035,-118.6495 1154.6798,-115.9928"/>
</g>
<!-- [root] aws_ecs_task_definition.app -->
<g id="node6" class="node">
<title>[root] aws_ecs_task_definition.app</title>
<polygon fill="none" stroke="#000000" points="303.9127,-324 130.9127,-324 130.9127,-288 303.9127,-288 303.9127,-324"/>
<text text-anchor="middle" x="217.4127" y="-302.3" font-family="Times,serif" font-size="14.00" fill="#000000">aws_ecs_task_definition.app</text>
</g>
<!-- [root] aws_ecs_service.main&#45;&gt;[root] aws_ecs_task_definition.app -->
<g id="edge9" class="edge">
<title>[root] aws_ecs_service.main&#45;&gt;[root] aws_ecs_task_definition.app</title>
<path fill="none" stroke="#000000" d="M638.2469,-367.8369C553.5294,-355.3886 409.5277,-334.2291 313.9379,-320.1833"/>
<polygon fill="#000000" stroke="#000000" points="314.3786,-316.7105 303.976,-318.7195 313.3609,-323.6362 314.3786,-316.7105"/>
</g>
<!-- [root] aws_security_group.ecs_tasks -->
<g id="node13" class="node">
<title>[root] aws_security_group.ecs_tasks</title>
<polygon fill="none" stroke="#000000" points="533.4127,-324 353.4127,-324 353.4127,-288 533.4127,-288 533.4127,-324"/>
<text text-anchor="middle" x="443.4127" y="-302.3" font-family="Times,serif" font-size="14.00" fill="#000000">aws_security_group.ecs_tasks</text>
</g>
<!-- [root] aws_ecs_service.main&#45;&gt;[root] aws_security_group.ecs_tasks -->
<g id="edge10" class="edge">
<title>[root] aws_ecs_service.main&#45;&gt;[root] aws_security_group.ecs_tasks</title>
<path fill="none" stroke="#000000" d="M641.1351,-359.9243C604.2602,-349.8675 558.1983,-337.3052 519.8123,-326.8363"/>
<polygon fill="#000000" stroke="#000000" points="520.2861,-323.3377 509.7175,-324.0831 518.4443,-330.0911 520.2861,-323.3377"/>
</g>
<!-- [root] aws_subnet.private -->
<g id="node15" class="node">
<title>[root] aws_subnet.private</title>
<polygon fill="none" stroke="#000000" points="926.9127,-180 805.9127,-180 805.9127,-144 926.9127,-144 926.9127,-180"/>
<text text-anchor="middle" x="866.4127" y="-158.3" font-family="Times,serif" font-size="14.00" fill="#000000">aws_subnet.private</text>
</g>
<!-- [root] aws_ecs_service.main&#45;&gt;[root] aws_subnet.private -->
<g id="edge11" class="edge">
<title>[root] aws_ecs_service.main&#45;&gt;[root] aws_subnet.private</title>
<path fill="none" stroke="#000000" d="M776.4309,-363.0913C798.6117,-355.0235 821.3227,-342.7089 836.4127,-324 867.4143,-285.5636 870.2459,-225.2933 868.8028,-190.118"/>
<polygon fill="#000000" stroke="#000000" points="872.2934,-189.8497 868.2442,-180.0592 865.3042,-190.2379 872.2934,-189.8497"/>
</g>
<!-- [root] var.app_count -->
<g id="node21" class="node">
<title>[root] var.app_count</title>
<polygon fill="none" stroke="#000000" points="821.4127,-324 733.4127,-324 733.4127,-288 827.4127,-288 827.4127,-318 821.4127,-324"/>
<polyline fill="none" stroke="#000000" points="821.4127,-324 821.4127,-318 "/>
<polyline fill="none" stroke="#000000" points="827.4127,-318 821.4127,-318 "/>
<text text-anchor="middle" x="780.4127" y="-302.3" font-family="Times,serif" font-size="14.00" fill="#000000">var.app_count</text>
</g>
<!-- [root] aws_ecs_service.main&#45;&gt;[root] var.app_count -->
<g id="edge12" class="edge">
<title>[root] aws_ecs_service.main&#45;&gt;[root] var.app_count</title>
<path fill="none" stroke="#000000" d="M725.8337,-359.8314C734.5656,-351.219 745.1444,-340.7851 754.655,-331.4048"/>
<polygon fill="#000000" stroke="#000000" points="757.3357,-333.6769 761.9976,-324.1628 752.4202,-328.6931 757.3357,-333.6769"/>
</g>
<!-- [root] aws_ecs_task_definition.app&#45;&gt;[root] provider.aws -->
<g id="edge13" class="edge">
<title>[root] aws_ecs_task_definition.app&#45;&gt;[root] provider.aws</title>
<path fill="none" stroke="#000000" d="M130.8196,-298.0992C58.4106,-287.9163 -27.5546,-265.2463 9.4127,-216 85.3723,-114.8097 478.3071,-48.4771 630.2948,-26.2545"/>
<polygon fill="#000000" stroke="#000000" points="630.9884,-29.6906 640.3831,-24.7926 629.9845,-22.763 630.9884,-29.6906"/>
</g>
<!-- [root] var.app_image -->
<g id="node22" class="node">
<title>[root] var.app_image</title>
<polygon fill="none" stroke="#000000" points="110.4127,-252 18.4127,-252 18.4127,-216 116.4127,-216 116.4127,-246 110.4127,-252"/>
<polyline fill="none" stroke="#000000" points="110.4127,-252 110.4127,-246 "/>
<polyline fill="none" stroke="#000000" points="116.4127,-246 110.4127,-246 "/>
<text text-anchor="middle" x="67.4127" y="-230.3" font-family="Times,serif" font-size="14.00" fill="#000000">var.app_image</text>
</g>
<!-- [root] aws_ecs_task_definition.app&#45;&gt;[root] var.app_image -->
<g id="edge14" class="edge">
<title>[root] aws_ecs_task_definition.app&#45;&gt;[root] var.app_image</title>
<path fill="none" stroke="#000000" d="M179.5614,-287.8314C159.6781,-278.2874 135.1345,-266.5065 114.0822,-256.4013"/>
<polygon fill="#000000" stroke="#000000" points="115.5217,-253.21 104.9918,-252.038 112.4925,-259.5207 115.5217,-253.21"/>
</g>
<!-- [root] var.app_port -->
<g id="node23" class="node">
<title>[root] var.app_port</title>
<polygon fill="none" stroke="#000000" points="480.4127,-252 400.4127,-252 400.4127,-216 486.4127,-216 486.4127,-246 480.4127,-252"/>
<polyline fill="none" stroke="#000000" points="480.4127,-252 480.4127,-246 "/>
<polyline fill="none" stroke="#000000" points="486.4127,-246 480.4127,-246 "/>
<text text-anchor="middle" x="443.4127" y="-230.3" font-family="Times,serif" font-size="14.00" fill="#000000">var.app_port</text>
</g>
<!-- [root] aws_ecs_task_definition.app&#45;&gt;[root] var.app_port -->
<g id="edge15" class="edge">
<title>[root] aws_ecs_task_definition.app&#45;&gt;[root] var.app_port</title>
<path fill="none" stroke="#000000" d="M277.1572,-287.9803C308.5031,-278.4043 347.7448,-266.2271 390.7848,-252.1632"/>
<polygon fill="#000000" stroke="#000000" points="391.907,-255.4787 400.3187,-249.0372 389.726,-248.8271 391.907,-255.4787"/>
</g>
<!-- [root] var.fargate_cpu -->
<g id="node27" class="node">
<title>[root] var.fargate_cpu</title>
<polygon fill="none" stroke="#000000" points="229.9127,-252 134.9127,-252 134.9127,-216 235.9127,-216 235.9127,-246 229.9127,-252"/>
<polyline fill="none" stroke="#000000" points="229.9127,-252 229.9127,-246 "/>
<polyline fill="none" stroke="#000000" points="235.9127,-246 229.9127,-246 "/>
<text text-anchor="middle" x="185.4127" y="-230.3" font-family="Times,serif" font-size="14.00" fill="#000000">var.fargate_cpu</text>
</g>
<!-- [root] aws_ecs_task_definition.app&#45;&gt;[root] var.fargate_cpu -->
<g id="edge16" class="edge">
<title>[root] aws_ecs_task_definition.app&#45;&gt;[root] var.fargate_cpu</title>
<path fill="none" stroke="#000000" d="M209.3377,-287.8314C205.8025,-279.8771 201.5767,-270.369 197.667,-261.5723"/>
<polygon fill="#000000" stroke="#000000" points="200.8562,-260.1299 193.5964,-252.4133 194.4595,-262.9729 200.8562,-260.1299"/>
</g>
<!-- [root] var.fargate_memory -->
<g id="node28" class="node">
<title>[root] var.fargate_memory</title>
<polygon fill="none" stroke="#000000" points="376.4127,-252 254.4127,-252 254.4127,-216 382.4127,-216 382.4127,-246 376.4127,-252"/>
<polyline fill="none" stroke="#000000" points="376.4127,-252 376.4127,-246 "/>
<polyline fill="none" stroke="#000000" points="382.4127,-246 376.4127,-246 "/>
<text text-anchor="middle" x="318.4127" y="-230.3" font-family="Times,serif" font-size="14.00" fill="#000000">var.fargate_memory</text>
</g>
<!-- [root] aws_ecs_task_definition.app&#45;&gt;[root] var.fargate_memory -->
<g id="edge17" class="edge">
<title>[root] aws_ecs_task_definition.app&#45;&gt;[root] var.fargate_memory</title>
<path fill="none" stroke="#000000" d="M242.8993,-287.8314C255.5785,-278.7927 271.0723,-267.7476 284.7182,-258.0198"/>
<polygon fill="#000000" stroke="#000000" points="286.8232,-260.8176 292.9343,-252.1628 282.7598,-255.1176 286.8232,-260.8176"/>
</g>
<!-- [root] aws_eip.gw -->
<g id="node7" class="node">
<title>[root] aws_eip.gw</title>
<polygon fill="none" stroke="#000000" points="1113.9127,-252 1032.9127,-252 1032.9127,-216 1113.9127,-216 1113.9127,-252"/>
<text text-anchor="middle" x="1073.4127" y="-230.3" font-family="Times,serif" font-size="14.00" fill="#000000">aws_eip.gw</text>
</g>
<!-- [root] aws_internet_gateway.gw -->
<g id="node8" class="node">
<title>[root] aws_internet_gateway.gw</title>
<polygon fill="none" stroke="#000000" points="1103.4127,-180 945.4127,-180 945.4127,-144 1103.4127,-144 1103.4127,-180"/>
<text text-anchor="middle" x="1024.4127" y="-158.3" font-family="Times,serif" font-size="14.00" fill="#000000">aws_internet_gateway.gw</text>
</g>
<!-- [root] aws_eip.gw&#45;&gt;[root] aws_internet_gateway.gw -->
<g id="edge18" class="edge">
<title>[root] aws_eip.gw&#45;&gt;[root] aws_internet_gateway.gw</title>
<path fill="none" stroke="#000000" d="M1061.0479,-215.8314C1055.4618,-207.6232 1048.7497,-197.7606 1042.6055,-188.7323"/>
<polygon fill="#000000" stroke="#000000" points="1045.4637,-186.7112 1036.9439,-180.4133 1039.6767,-190.6496 1045.4637,-186.7112"/>
</g>
<!-- [root] var.az_count -->
<g id="node26" class="node">
<title>[root] var.az_count</title>
<polygon fill="none" stroke="#000000" points="987.4127,-108 907.4127,-108 907.4127,-72 993.4127,-72 993.4127,-102 987.4127,-108"/>
<polyline fill="none" stroke="#000000" points="987.4127,-108 987.4127,-102 "/>
<polyline fill="none" stroke="#000000" points="993.4127,-102 987.4127,-102 "/>
<text text-anchor="middle" x="950.4127" y="-86.3" font-family="Times,serif" font-size="14.00" fill="#000000">var.az_count</text>
</g>
<!-- [root] aws_eip.gw&#45;&gt;[root] var.az_count -->
<g id="edge19" class="edge">
<title>[root] aws_eip.gw&#45;&gt;[root] var.az_count</title>
<path fill="none" stroke="#000000" d="M1091.5397,-215.9123C1108.3937,-196.8476 1128.6426,-166.5178 1112.4127,-144 1099.3336,-125.8537 1045.3843,-110.3374 1003.2922,-100.6557"/>
<polygon fill="#000000" stroke="#000000" points="1003.9484,-97.216 993.4246,-98.4413 1002.4156,-104.0461 1003.9484,-97.216"/>
</g>
<!-- [root] aws_internet_gateway.gw&#45;&gt;[root] aws_vpc.main -->
<g id="edge20" class="edge">
<title>[root] aws_internet_gateway.gw&#45;&gt;[root] aws_vpc.main</title>
<path fill="none" stroke="#000000" d="M945.3091,-145.5378C942.3084,-145.0029 939.3351,-144.4881 936.4127,-144 817.1912,-124.0866 782.4523,-134.2255 660.2633,-107.9605"/>
<polygon fill="#000000" stroke="#000000" points="660.6575,-104.464 650.1404,-105.7452 659.161,-111.3022 660.6575,-104.464"/>
</g>
<!-- [root] aws_nat_gateway.gw -->
<g id="node9" class="node">
<title>[root] aws_nat_gateway.gw</title>
<polygon fill="none" stroke="#000000" points="1139.9127,-324 1006.9127,-324 1006.9127,-288 1139.9127,-288 1139.9127,-324"/>
<text text-anchor="middle" x="1073.4127" y="-302.3" font-family="Times,serif" font-size="14.00" fill="#000000">aws_nat_gateway.gw</text>
</g>
<!-- [root] aws_nat_gateway.gw&#45;&gt;[root] aws_eip.gw -->
<g id="edge21" class="edge">
<title>[root] aws_nat_gateway.gw&#45;&gt;[root] aws_eip.gw</title>
<path fill="none" stroke="#000000" d="M1073.4127,-287.8314C1073.4127,-280.131 1073.4127,-270.9743 1073.4127,-262.4166"/>
<polygon fill="#000000" stroke="#000000" points="1076.9128,-262.4132 1073.4127,-252.4133 1069.9128,-262.4133 1076.9128,-262.4132"/>
</g>
<!-- [root] aws_nat_gateway.gw&#45;&gt;[root] aws_subnet.public -->
<g id="edge22" class="edge">
<title>[root] aws_nat_gateway.gw&#45;&gt;[root] aws_subnet.public</title>
<path fill="none" stroke="#000000" d="M1030.1932,-287.9081C967.0285,-261.4671 849.6469,-212.3306 781.7036,-183.8892"/>
<polygon fill="#000000" stroke="#000000" points="783.0313,-180.6508 772.4554,-180.0179 780.3283,-187.1079 783.0313,-180.6508"/>
</g>
<!-- [root] aws_route.internet_access -->
<g id="node10" class="node">
<title>[root] aws_route.internet_access</title>
<polygon fill="none" stroke="#000000" points="969.4127,-468 811.4127,-468 811.4127,-432 969.4127,-432 969.4127,-468"/>
<text text-anchor="middle" x="890.4127" y="-446.3" font-family="Times,serif" font-size="14.00" fill="#000000">aws_route.internet_access</text>
</g>
<!-- [root] aws_route.internet_access&#45;&gt;[root] aws_internet_gateway.gw -->
<g id="edge23" class="edge">
<title>[root] aws_route.internet_access&#45;&gt;[root] aws_internet_gateway.gw</title>
<path fill="none" stroke="#000000" d="M908.3167,-431.6672C917.3255,-421.7191 927.8978,-408.8525 935.4127,-396 976.0172,-326.5547 1004.4295,-235.2126 1017.0551,-189.9348"/>
<polygon fill="#000000" stroke="#000000" points="1020.4486,-190.7942 1019.7164,-180.2246 1013.6976,-188.9438 1020.4486,-190.7942"/>
</g>
<!-- [root] aws_route_table.private -->
<g id="node11" class="node">
<title>[root] aws_route_table.private</title>
<polygon fill="none" stroke="#000000" points="1166.4127,-396 1020.4127,-396 1020.4127,-360 1166.4127,-360 1166.4127,-396"/>
<text text-anchor="middle" x="1093.4127" y="-374.3" font-family="Times,serif" font-size="14.00" fill="#000000">aws_route_table.private</text>
</g>
<!-- [root] aws_route_table.private&#45;&gt;[root] aws_nat_gateway.gw -->
<g id="edge24" class="edge">
<title>[root] aws_route_table.private&#45;&gt;[root] aws_nat_gateway.gw</title>
<path fill="none" stroke="#000000" d="M1088.3659,-359.8314C1086.2033,-352.0463 1083.6274,-342.7729 1081.2279,-334.1347"/>
<polygon fill="#000000" stroke="#000000" points="1084.5763,-333.1117 1078.5275,-324.4133 1077.8317,-334.9852 1084.5763,-333.1117"/>
</g>
<!-- [root] aws_route_table_association.private -->
<g id="node12" class="node">
<title>[root] aws_route_table_association.private</title>
<polygon fill="none" stroke="#000000" points="1199.9127,-468 986.9127,-468 986.9127,-432 1199.9127,-432 1199.9127,-468"/>
<text text-anchor="middle" x="1093.4127" y="-446.3" font-family="Times,serif" font-size="14.00" fill="#000000">aws_route_table_association.private</text>
</g>
<!-- [root] aws_route_table_association.private&#45;&gt;[root] aws_route_table.private -->
<g id="edge25" class="edge">
<title>[root] aws_route_table_association.private&#45;&gt;[root] aws_route_table.private</title>
<path fill="none" stroke="#000000" d="M1093.4127,-431.8314C1093.4127,-424.131 1093.4127,-414.9743 1093.4127,-406.4166"/>
<polygon fill="#000000" stroke="#000000" points="1096.9128,-406.4132 1093.4127,-396.4133 1089.9128,-406.4133 1096.9128,-406.4132"/>
</g>
<!-- [root] aws_route_table_association.private&#45;&gt;[root] aws_subnet.private -->
<g id="edge26" class="edge">
<title>[root] aws_route_table_association.private&#45;&gt;[root] aws_subnet.private</title>
<path fill="none" stroke="#000000" d="M1059.0342,-431.9308C1043.3291,-422.5895 1025.2001,-410.1733 1011.4127,-396 948.8783,-331.7151 900.1109,-235.9426 878.5283,-189.3856"/>
<polygon fill="#000000" stroke="#000000" points="881.6819,-187.8656 874.3402,-180.2268 875.3159,-190.7767 881.6819,-187.8656"/>
</g>
<!-- [root] aws_security_group.ecs_tasks&#45;&gt;[root] aws_security_group.lb -->
<g id="edge27" class="edge">
<title>[root] aws_security_group.ecs_tasks&#45;&gt;[root] aws_security_group.lb</title>
<path fill="none" stroke="#000000" d="M467.9928,-287.7772C478.5609,-278.4022 489.767,-266.0021 495.4127,-252 501.3959,-237.1608 503.3297,-229.904 495.4127,-216 488.1008,-203.1588 476.3997,-193.0559 463.7895,-185.2384"/>
<polygon fill="#000000" stroke="#000000" points="465.3749,-182.1132 454.9568,-180.1858 461.8991,-188.1893 465.3749,-182.1132"/>
</g>
<!-- [root] aws_security_group.ecs_tasks&#45;&gt;[root] var.app_port -->
<g id="edge28" class="edge">
<title>[root] aws_security_group.ecs_tasks&#45;&gt;[root] var.app_port</title>
<path fill="none" stroke="#000000" d="M443.4127,-287.8314C443.4127,-280.131 443.4127,-270.9743 443.4127,-262.4166"/>
<polygon fill="#000000" stroke="#000000" points="446.9128,-262.4132 443.4127,-252.4133 439.9128,-262.4133 446.9128,-262.4132"/>
</g>
<!-- [root] aws_security_group.lb&#45;&gt;[root] aws_vpc.main -->
<g id="edge29" class="edge">
<title>[root] aws_security_group.lb&#45;&gt;[root] aws_vpc.main</title>
<path fill="none" stroke="#000000" d="M454.1209,-143.9243C481.8062,-133.8569 516.3962,-121.2787 545.2038,-110.8032"/>
<polygon fill="#000000" stroke="#000000" points="546.5315,-114.0447 554.7333,-107.338 544.1393,-107.4662 546.5315,-114.0447"/>
</g>
<!-- [root] aws_subnet.private&#45;&gt;[root] aws_vpc.main -->
<g id="edge30" class="edge">
<title>[root] aws_subnet.private&#45;&gt;[root] aws_vpc.main</title>
<path fill="none" stroke="#000000" d="M805.881,-146.2139C754.473,-132.8067 685.8692,-114.9131 659.7227,-107.8923"/>
<polygon fill="#000000" stroke="#000000" points="660.5136,-104.48 649.9438,-105.208 658.6606,-111.2303 660.5136,-104.48"/>
</g>
<!-- [root] data.aws_availability_zones.available -->
<g id="node18" class="node">
<title>[root] data.aws_availability_zones.available</title>
<polygon fill="none" stroke="#000000" points="888.9127,-108 667.9127,-108 667.9127,-72 888.9127,-72 888.9127,-108"/>
<text text-anchor="middle" x="778.4127" y="-86.3" font-family="Times,serif" font-size="14.00" fill="#000000">data.aws_availability_zones.available</text>
</g>
<!-- [root] aws_subnet.private&#45;&gt;[root] data.aws_availability_zones.available -->
<g id="edge31" class="edge">
<title>[root] aws_subnet.private&#45;&gt;[root] data.aws_availability_zones.available</title>
<path fill="none" stroke="#000000" d="M844.2066,-143.8314C833.3677,-134.9632 820.1683,-124.1637 808.4449,-114.5718"/>
<polygon fill="#000000" stroke="#000000" points="810.5676,-111.7864 800.6117,-108.1628 806.135,-117.2041 810.5676,-111.7864"/>
</g>
<!-- [root] aws_subnet.private&#45;&gt;[root] var.az_count -->
<g id="edge32" class="edge">
<title>[root] aws_subnet.private&#45;&gt;[root] var.az_count</title>
<path fill="none" stroke="#000000" d="M887.6094,-143.8314C897.8561,-135.0485 910.313,-124.3712 921.4224,-114.8489"/>
<polygon fill="#000000" stroke="#000000" points="923.9079,-117.3282 929.2227,-108.1628 919.3524,-112.0134 923.9079,-117.3282"/>
</g>
<!-- [root] aws_subnet.public&#45;&gt;[root] aws_vpc.main -->
<g id="edge33" class="edge">
<title>[root] aws_subnet.public&#45;&gt;[root] aws_vpc.main</title>
<path fill="none" stroke="#000000" d="M697.3652,-143.8314C680.9707,-134.5368 660.8341,-123.1208 643.3298,-113.1971"/>
<polygon fill="#000000" stroke="#000000" points="644.8753,-110.05 634.4499,-108.1628 641.423,-116.1395 644.8753,-110.05"/>
</g>
<!-- [root] aws_subnet.public&#45;&gt;[root] data.aws_availability_zones.available -->
<g id="edge34" class="edge">
<title>[root] aws_subnet.public&#45;&gt;[root] data.aws_availability_zones.available</title>
<path fill="none" stroke="#000000" d="M741.7775,-143.8314C747.3635,-135.6232 754.0757,-125.7606 760.2199,-116.7323"/>
<polygon fill="#000000" stroke="#000000" points="763.1487,-118.6496 765.8814,-108.4133 757.3617,-114.7112 763.1487,-118.6496"/>
</g>
<!-- [root] aws_subnet.public&#45;&gt;[root] var.az_count -->
<g id="edge35" class="edge">
<title>[root] aws_subnet.public&#45;&gt;[root] var.az_count</title>
<path fill="none" stroke="#000000" d="M787.0163,-143.9705C817.4421,-134.3598 855.6225,-122.163 897.6979,-108.206"/>
<polygon fill="#000000" stroke="#000000" points="898.9251,-111.4864 907.3095,-105.0094 896.716,-104.8441 898.9251,-111.4864"/>
</g>
<!-- [root] aws_vpc.main&#45;&gt;[root] provider.aws -->
<g id="edge36" class="edge">
<title>[root] aws_vpc.main&#45;&gt;[root] provider.aws</title>
<path fill="none" stroke="#000000" d="M624.6188,-71.8314C636.8985,-61.7844 652.2079,-49.2585 664.9683,-38.8182"/>
<polygon fill="#000000" stroke="#000000" points="667.4048,-41.3469 672.9281,-32.3056 662.9722,-35.9291 667.4048,-41.3469"/>
</g>
<!-- [root] data.aws_availability_zones.available&#45;&gt;[root] provider.aws -->
<g id="edge37" class="edge">
<title>[root] data.aws_availability_zones.available&#45;&gt;[root] provider.aws</title>
<path fill="none" stroke="#000000" d="M756.2066,-71.8314C743.9269,-61.7844 728.6175,-49.2585 715.8571,-38.8182"/>
<polygon fill="#000000" stroke="#000000" points="717.8532,-35.9291 707.8973,-32.3056 713.4205,-41.3469 717.8532,-35.9291"/>
</g>
<!-- [root] output.alb_hostname -->
<g id="node19" class="node">
<title>[root] output.alb_hostname</title>
<polygon fill="none" stroke="#000000" points="919.9127,-396 794.9127,-396 794.9127,-360 925.9127,-360 925.9127,-390 919.9127,-396"/>
<polyline fill="none" stroke="#000000" points="919.9127,-396 919.9127,-390 "/>
<polyline fill="none" stroke="#000000" points="925.9127,-390 919.9127,-390 "/>
<text text-anchor="middle" x="860.4127" y="-374.3" font-family="Times,serif" font-size="14.00" fill="#000000">output.alb_hostname</text>
</g>
<!-- [root] output.alb_hostname&#45;&gt;[root] aws_alb.main -->
<g id="edge44" class="edge">
<title>[root] output.alb_hostname&#45;&gt;[root] aws_alb.main</title>
<path fill="none" stroke="#000000" d="M859.9954,-359.697C858.6193,-339.8828 853.6245,-308.3886 836.4127,-288 820.4617,-269.1049 796.4977,-256.4858 774.3239,-248.2344"/>
<polygon fill="#000000" stroke="#000000" points="775.2241,-244.8416 764.6293,-244.852 772.9181,-251.4509 775.2241,-244.8416"/>
</g>
<!-- [root] var.aws_account_id -->
<g id="node24" class="node">
<title>[root] var.aws_account_id</title>
<polygon fill="none" stroke="#000000" points="1455.9127,-468 1336.9127,-468 1336.9127,-432 1461.9127,-432 1461.9127,-462 1455.9127,-468"/>
<polyline fill="none" stroke="#000000" points="1455.9127,-468 1455.9127,-462 "/>
<polyline fill="none" stroke="#000000" points="1461.9127,-462 1455.9127,-462 "/>
<text text-anchor="middle" x="1399.4127" y="-446.3" font-family="Times,serif" font-size="14.00" fill="#000000">var.aws_account_id</text>
</g>
<!-- [root] var.aws_region -->
<g id="node25" class="node">
<title>[root] var.aws_region</title>
<polygon fill="none" stroke="#000000" points="1312.4127,-468 1218.4127,-468 1218.4127,-432 1318.4127,-432 1318.4127,-462 1312.4127,-468"/>
<polyline fill="none" stroke="#000000" points="1312.4127,-468 1312.4127,-462 "/>
<polyline fill="none" stroke="#000000" points="1318.4127,-462 1312.4127,-462 "/>
<text text-anchor="middle" x="1268.4127" y="-446.3" font-family="Times,serif" font-size="14.00" fill="#000000">var.aws_region</text>
</g>
<!-- [root] meta.count&#45;boundary (EachMode fixup) -->
<g id="node29" class="node">
<title>[root] meta.count&#45;boundary (EachMode fixup)</title>
<ellipse fill="none" stroke="#000000" cx="1093.4127" cy="-522" rx="176.5689" ry="18"/>
<text text-anchor="middle" x="1093.4127" y="-518.3" font-family="Times,serif" font-size="14.00" fill="#000000">[root] meta.count&#45;boundary (EachMode fixup)</text>
</g>
<!-- [root] meta.count&#45;boundary (EachMode fixup)&#45;&gt;[root] aws_ecs_service.main -->
<g id="edge38" class="edge">
<title>[root] meta.count&#45;boundary (EachMode fixup)&#45;&gt;[root] aws_ecs_service.main</title>
<path fill="none" stroke="#000000" d="M974.7718,-508.5726C904.3353,-499.1064 822.8155,-485.0904 791.4127,-468 763.652,-452.8918 739.9347,-425.2079 724.8523,-404.5178"/>
<polygon fill="#000000" stroke="#000000" points="727.5593,-402.2836 718.9305,-396.1358 721.8421,-406.3227 727.5593,-402.2836"/>
</g>
<!-- [root] meta.count&#45;boundary (EachMode fixup)&#45;&gt;[root] aws_route.internet_access -->
<g id="edge39" class="edge">
<title>[root] meta.count&#45;boundary (EachMode fixup)&#45;&gt;[root] aws_route.internet_access</title>
<path fill="none" stroke="#000000" d="M1044.5308,-504.6626C1016.3714,-494.675 980.7436,-482.0385 950.8382,-471.4317"/>
<polygon fill="#000000" stroke="#000000" points="951.9412,-468.1094 941.3465,-468.0652 949.6012,-474.7067 951.9412,-468.1094"/>
</g>
<!-- [root] meta.count&#45;boundary (EachMode fixup)&#45;&gt;[root] aws_route_table_association.private -->
<g id="edge40" class="edge">
<title>[root] meta.count&#45;boundary (EachMode fixup)&#45;&gt;[root] aws_route_table_association.private</title>
<path fill="none" stroke="#000000" d="M1093.4127,-503.8314C1093.4127,-496.131 1093.4127,-486.9743 1093.4127,-478.4166"/>
<polygon fill="#000000" stroke="#000000" points="1096.9128,-478.4132 1093.4127,-468.4133 1089.9128,-478.4133 1096.9128,-478.4132"/>
</g>
<!-- [root] meta.count&#45;boundary (EachMode fixup)&#45;&gt;[root] output.alb_hostname -->
<g id="edge41" class="edge">
<title>[root] meta.count&#45;boundary (EachMode fixup)&#45;&gt;[root] output.alb_hostname</title>
<path fill="none" stroke="#000000" d="M981.0404,-508.0921C904.2072,-497.4251 814.1984,-482.1739 802.4127,-468 785.2653,-447.3779 805.8698,-421.4131 827.119,-402.6783"/>
<polygon fill="#000000" stroke="#000000" points="829.5084,-405.242 834.9081,-396.1264 825.0024,-399.8851 829.5084,-405.242"/>
</g>
<!-- [root] meta.count&#45;boundary (EachMode fixup)&#45;&gt;[root] var.aws_account_id -->
<g id="edge42" class="edge">
<title>[root] meta.count&#45;boundary (EachMode fixup)&#45;&gt;[root] var.aws_account_id</title>
<path fill="none" stroke="#000000" d="M1166.2214,-505.5562C1210.006,-495.5836 1267.099,-482.4334 1326.6364,-468.1671"/>
<polygon fill="#000000" stroke="#000000" points="1327.6942,-471.5126 1336.6006,-465.7744 1326.0597,-464.7061 1327.6942,-471.5126"/>
</g>
<!-- [root] meta.count&#45;boundary (EachMode fixup)&#45;&gt;[root] var.aws_region -->
<g id="edge43" class="edge">
<title>[root] meta.count&#45;boundary (EachMode fixup)&#45;&gt;[root] var.aws_region</title>
<path fill="none" stroke="#000000" d="M1136.2225,-504.3868C1159.9998,-494.6042 1189.7956,-482.3453 1215.0772,-471.9437"/>
<polygon fill="#000000" stroke="#000000" points="1216.6075,-475.0989 1224.5236,-468.0572 1213.9441,-468.6253 1216.6075,-475.0989"/>
</g>
<!-- [root] provider.aws (close) -->
<g id="node30" class="node">
<title>[root] provider.aws (close)</title>
<ellipse fill="none" stroke="#000000" cx="793.4127" cy="-522" rx="105.0817" ry="18"/>
<text text-anchor="middle" x="793.4127" y="-518.3" font-family="Times,serif" font-size="14.00" fill="#000000">[root] provider.aws (close)</text>
</g>
<!-- [root] provider.aws (close)&#45;&gt;[root] aws_ecs_service.main -->
<g id="edge45" class="edge">
<title>[root] provider.aws (close)&#45;&gt;[root] aws_ecs_service.main</title>
<path fill="none" stroke="#000000" d="M766.869,-504.5419C754.4273,-495.0967 740.3985,-482.4149 731.4127,-468 719.702,-449.2139 713.6529,-424.7837 710.5591,-406.1176"/>
<polygon fill="#000000" stroke="#000000" points="714.0106,-405.5312 709.0928,-396.1468 707.0851,-406.5497 714.0106,-405.5312"/>
</g>
<!-- [root] provider.aws (close)&#45;&gt;[root] aws_route.internet_access -->
<g id="edge46" class="edge">
<title>[root] provider.aws (close)&#45;&gt;[root] aws_route.internet_access</title>
<path fill="none" stroke="#000000" d="M817.3902,-504.2022C829.5399,-495.1839 844.4758,-484.0975 857.6673,-474.3059"/>
<polygon fill="#000000" stroke="#000000" points="860.0936,-476.8638 866.0372,-468.0931 855.9214,-471.2429 860.0936,-476.8638"/>
</g>
<!-- [root] provider.aws (close)&#45;&gt;[root] aws_route_table_association.private -->
<g id="edge47" class="edge">
<title>[root] provider.aws (close)&#45;&gt;[root] aws_route_table_association.private</title>
<path fill="none" stroke="#000000" d="M854.8461,-507.256C899.1096,-496.6327 959.4036,-482.1622 1008.3013,-470.4267"/>
<polygon fill="#000000" stroke="#000000" points="1009.3292,-473.7795 1018.2363,-468.0423 1007.6956,-466.9728 1009.3292,-473.7795"/>
</g>
<!-- [root] root -->
<g id="node31" class="node">
<title>[root] root</title>
<ellipse fill="none" stroke="#000000" cx="943.4127" cy="-594" rx="47.3916" ry="18"/>
<text text-anchor="middle" x="943.4127" y="-590.3" font-family="Times,serif" font-size="14.00" fill="#000000">[root] root</text>
</g>
<!-- [root] root&#45;&gt;[root] meta.count&#45;boundary (EachMode fixup) -->
<g id="edge48" class="edge">
<title>[root] root&#45;&gt;[root] meta.count&#45;boundary (EachMode fixup)</title>
<path fill="none" stroke="#000000" d="M973.0479,-579.7751C994.3218,-569.5636 1023.3961,-555.608 1047.6401,-543.9708"/>
<polygon fill="#000000" stroke="#000000" points="1049.1684,-547.1196 1056.6691,-539.6369 1046.1392,-540.809 1049.1684,-547.1196"/>
</g>
<!-- [root] root&#45;&gt;[root] provider.aws (close) -->
<g id="edge49" class="edge">
<title>[root] root&#45;&gt;[root] provider.aws (close)</title>
<path fill="none" stroke="#000000" d="M913.7775,-579.7751C892.125,-569.3819 862.3921,-555.1101 837.8957,-543.3519"/>
<polygon fill="#000000" stroke="#000000" points="839.3212,-540.1538 828.7914,-538.9818 836.2921,-546.4645 839.3212,-540.1538"/>
</g>
</g>
</svg>
